<?xml version="1.0" encoding="utf-8"?>
<svg version="1.1" id="Layer_1"
xmlns="http://www.w3.org/2000/svg"
xmlns:xlink="http://www.w3.org/1999/xlink"
width="63px" height="21px"
xml:space="preserve">
<g id="11" transform="matrix(1, 0, 0, 1, 0.05, 0.15)">
<linearGradient
id="LinearGradID_7" gradientUnits="userSpaceOnUse" gradientTransform="matrix(-6.10352e-005, -0.0126343, 0.0125732, -6.10352e-005, 31.15, 10.85)" spreadMethod ="pad" x1="-819.2" y1="0" x2="819.2" y2="0" >
<stop  offset="0" style="stop-color:#025EE7;stop-opacity:1" />
<stop  offset="1" style="stop-color:#3875D7;stop-opacity:1" />
</linearGradient>
<path style="fill:url(#LinearGradID_7) " d="M61.3,2.3Q61.3 0.9 59.85 0.9L2.45 0.9Q0.95 0.9 0.95 2.3L0.95 18.05Q0.95 19.4 2.45 19.4L59.85 19.4Q61.3 19.4 61.3 18.05L61.3 2.3M62.25,18.05Q62.9 20.95 59.85 20.35L2.45 20.35Q-0.35 20.85 0 18.05L0 2.3Q-0.3 -0.75 2.45 0L59.85 0Q62.75 -0.65 62.25 2.3L62.25 18.05" />
</g>
</svg>
