<?xml version="1.0" encoding="utf-8"?>
<svg version="1.1" id="Layer_1"
xmlns="http://www.w3.org/2000/svg"
xmlns:xlink="http://www.w3.org/1999/xlink"
width="44px" height="22px"
xml:space="preserve">
<g id="69" transform="matrix(1, 0, 0, 1, 0, 0)">
<path style="fill:#CCCCCC;fill-opacity:1" d="M1,1L1 21L0 21L0 1L1 1M44,21L43 21L43 1L44 1L44 21" />
<path style="fill:#B5D5FF;fill-opacity:1" d="M1.15,21.05L1.15 20.75L1.1 20.75L1.1 1.1L43.1 1.1L43.1 21.05L1.15 21.05" />
<path style="fill:#999999;fill-opacity:1" d="M44,0L44 1L0 1L0 0L44 0M44,21L44 22L0 22L0 21L44 21" />
<linearGradient
id="LinearGradID_81" gradientUnits="userSpaceOnUse" gradientTransform="matrix(0, -0.0183105, 0.0183105, 0, 1.65, 15.95)" spreadMethod ="pad" x1="-819.2" y1="0" x2="819.2" y2="0" >
<stop  offset="0" style="stop-color:#585F63;stop-opacity:0.298039" />
<stop  offset="1" style="stop-color:#B7BABC;stop-opacity:0.298039" />
</linearGradient>
<path style="fill:url(#LinearGradID_81) " d="M2,1L2 21L1 21L1 1L2 1" />
<linearGradient
id="LinearGradID_82" gradientUnits="userSpaceOnUse" gradientTransform="matrix(0, -0.0183105, 0.0183105, 0, 42.7, 15.95)" spreadMethod ="pad" x1="-819.2" y1="0" x2="819.2" y2="0" >
<stop  offset="0" style="stop-color:#585F63;stop-opacity:0.298039" />
<stop  offset="1" style="stop-color:#B7BABC;stop-opacity:0.298039" />
</linearGradient>
<path style="fill:url(#LinearGradID_82) " d="M42.05,3.9L42.05 1L43.05 1L43.05 3.9L43.05 18.05L43.05 21L42.05 21L42.05 18.05L42.05 3.9" />
</g>
</svg>
