<?xml version="1.0" encoding="utf-8"?>
<svg version="1.1" id="Layer_1"
xmlns="http://www.w3.org/2000/svg"
xmlns:xlink="http://www.w3.org/1999/xlink"
width="22px" height="22px"
xml:space="preserve">
<g id="41" transform="matrix(1, 0, 0, 1, 0, 0)">
<path style="fill:#999999;fill-opacity:1" d="M22,18.5Q22 22 18.5 22L3.5 22Q0 22 0 18.5L0 3.5Q0 0 3.5 0L18.5 0Q22 0 22 3.5L22 18.5M21,3.5Q21 1 18.5 1L3.5 1Q1 1 1 3.5L1 18.5Q1 21 3.5 21L18.5 21Q21 21 21 18.5L21 3.5" />
<linearGradient
id="LinearGradID_36" gradientUnits="userSpaceOnUse" gradientTransform="matrix(1.52588e-005, 0.0128174, -0.0128174, 1.52588e-005, 11, 11)" spreadMethod ="pad" x1="-819.2" y1="0" x2="819.2" y2="0" >
<stop  offset="0" style="stop-color:#CCCCCC;stop-opacity:1" />
<stop  offset="1" style="stop-color:#FFFFFF;stop-opacity:1" />
</linearGradient>
<path style="fill:url(#LinearGradID_36) " d="M21,18.5Q21 21 18.5 21L3.5 21Q1 21 1 18.5L1 3.5Q1 1 3.5 1L18.5 1Q21 1 21 3.5L21 18.5" />
</g>
</svg>
