<?xml version="1.0" encoding="utf-8"?>
<svg version="1.1" id="Layer_1"
xmlns="http://www.w3.org/2000/svg"
xmlns:xlink="http://www.w3.org/1999/xlink"
width="7px" height="7px"
xml:space="preserve">
<g id="99" transform="matrix(1, 0, 0, 1, -0.2, -0.2)">
<path style="fill:#CC0000;fill-opacity:1" d="M5.65,2.9L4.35 3.15Q4.1 3.3 4.1 3.6L4.35 4.05L5.65 4.3L6.2 4.5L6.35 4.9L6.25 5.3L5.95 5.6L5.55 5.7L5.1 5.3L4.65 4.75L4.2 4.35Q4 4.2 3.7 4.35L3.45 4.75L3.6 5.35L4 6.55L3.7 6.9L3.3 7L2.9 6.9Q2.6 6.85 2.6 6.6L2.75 6L3 5.35L3.15 4.75L2.85 4.3L2.4 4.35L1.95 4.75L1.5 5.3L1.05 5.7L0.65 5.6L0.35 5.3L0.25 4.9Q0.2 4.65 0.4 4.5L0.9 4.3L1.6 4.2L2.2 4L2.45 3.6L2.2 3.15L1.6 3L0.9 2.9L0.35 2.7Q0.2 2.65 0.2 2.3L0.35 1.9L0.6 1.6Q0.8 1.4 1.05 1.5L1.5 1.9L1.9 2.45L2.4 2.9L2.85 2.9L3.15 2.45L3 1.85L2.7 1.2L2.6 0.6L2.85 0.3L3.3 0.2L3.7 0.3L4 0.6L3.85 1.2L3.6 1.85L3.45 2.45L3.7 2.9L4.2 2.9L5.1 1.9L5.55 1.5L5.95 1.6L6.25 1.9L6.35 2.3L6.2 2.7L5.65 2.9" />
</g>
</svg>
