<?xml version="1.0" encoding="utf-8"?>
<svg version="1.1" id="Layer_1"
xmlns="http://www.w3.org/2000/svg"
xmlns:xlink="http://www.w3.org/1999/xlink"
width="45px" height="22px"
xml:space="preserve">
<g id="81" transform="matrix(1, 0, 0, 1, 0, 0)">
<linearGradient
id="LinearGradID_93" gradientUnits="userSpaceOnUse" gradientTransform="matrix(-6.10352e-005, -0.0131226, -0.0128174, 6.10352e-005, 31.6, 10.95)" spreadMethod ="pad" x1="-819.2" y1="0" x2="819.2" y2="0" >
<stop  offset="0" style="stop-color:#FFFFFF;stop-opacity:1" />
<stop  offset="1" style="stop-color:#CCCCCC;stop-opacity:1" />
</linearGradient>
<path style="fill:url(#LinearGradID_93) " d="M0.1,21.5L0.1 0.5L43.1 0.5L43.1 1.05L43.6 1.05L43.6 20.75L42.95 20.75L42.95 21.5L0.1 21.5" />
<path style="fill:none;stroke-width:1;stroke-linecap:round;stroke-linejoin:round;stroke-miterlimit:3;stroke:#FFFFFF;stroke-opacity:1" d="M1.6,1.3L39.5 1.3Q42.85 1.3 42.85 4.5L42.85 17.5Q42.85 20.7 39.5 20.7L1.95 20.7L1.6 20.7M1.95,20.7L1.9 1.7" />
<path style="fill:#999999;fill-opacity:1" d="M0,1L0 0L41.6 0Q44.1 0 44.1 2.5L44.1 19.5Q44.1 22 41.6 22L0 22L0 21L41.6 21Q43.1 21 43.1 19.5L43.1 2.5Q43.1 1 41.6 1L0 1" />
<linearGradient
id="LinearGradID_94" gradientUnits="userSpaceOnUse" gradientTransform="matrix(0, -0.0183105, -0.0183105, 0, 0.45, 15.95)" spreadMethod ="pad" x1="-819.2" y1="0" x2="819.2" y2="0" >
<stop  offset="0" style="stop-color:#585F63;stop-opacity:1" />
<stop  offset="1" style="stop-color:#B7BABC;stop-opacity:1" />
</linearGradient>
<path style="fill:url(#LinearGradID_94) " d="M0.1,1L0.1 21L1.1 21L1.1 1L0.1 1" />
<linearGradient
id="LinearGradID_95" gradientUnits="userSpaceOnUse" gradientTransform="matrix(0, -0.0183105, -0.0183105, 0, 1.4, 15.95)" spreadMethod ="pad" x1="-819.2" y1="0" x2="819.2" y2="0" >
<stop  offset="0" style="stop-color:#585F63;stop-opacity:0.298039" />
<stop  offset="1" style="stop-color:#B7BABC;stop-opacity:0.298039" />
</linearGradient>
<path style="fill:url(#LinearGradID_95) " d="M2.05,5.05L2.05 1L1.05 1L1.05 5.05L1.05 16L1.05 21L2.05 21L2.05 16L2.05 5.05" />
</g>
</svg>
