<?xml version="1.0" encoding="utf-8"?>
<svg version="1.1" id="Layer_1"
xmlns="http://www.w3.org/2000/svg"
xmlns:xlink="http://www.w3.org/1999/xlink"
width="45px" height="22px"
xml:space="preserve">
<g id="85" transform="matrix(1, 0, 0, 1, 0, 0)">
<path style="fill:#B5D5FF;fill-opacity:1" d="M43.25,1.25L43.75 1.25L43.9 1.25L43.9 1.3L43.9 5.05L43.9 16L43.9 20.75L43.9 20.95L43.8 20.95L43.4 20.95L43.4 21.45L43.4 21.5L43.35 21.5L38.15 21.5L4.05 21.5L0.4 21.5L0.4 16L0.4 5.05L0.4 0.5L4.05 0.5L38.15 0.5L43.25 0.5L43.25 1.05L43.25 1.25" />
<path style="fill:#999999;fill-opacity:1" d="M43.75,1.25L43.75 1.05L43.25 1.05L43.25 0.5L38.15 0.5L4.05 0.5L0.4 0.5L0.25 0.5L0.25 1L0 1L0 0L4.05 0L38.15 0L41.6 0Q43.35 0 43.9 1.25L43.75 1.25M43.9,16L43.9 5.05L43.9 1.3L44.1 2.5L44.1 5.05L44.1 16L44.1 19.5L43.9 20.75L43.9 16M43.4,20.95L43.8 20.95L43.4 21.45L43.4 20.95M4.05,21.5L38.15 21.5L43.35 21.5Q42.7 22 41.6 22L38.15 22L4.05 22L0 22L0 21L0.25 21L0.25 21.5L0.4 21.5L4.05 21.5" />
<linearGradient
id="LinearGradID_103" gradientUnits="userSpaceOnUse" gradientTransform="matrix(0, -0.0183105, -0.0183105, 0, 0.45, 15.95)" spreadMethod ="pad" x1="-819.2" y1="0" x2="819.2" y2="0" >
<stop  offset="0" style="stop-color:#585F63;stop-opacity:1" />
<stop  offset="1" style="stop-color:#B7BABC;stop-opacity:1" />
</linearGradient>
<path style="fill:url(#LinearGradID_103) " d="M1.1,5.05L1.1 1L0.1 1L0.1 5.05L0.1 16L0.1 21L1.1 21L1.1 16L1.1 5.05" />
<linearGradient
id="LinearGradID_104" gradientUnits="userSpaceOnUse" gradientTransform="matrix(0, -0.0183105, -0.0183105, 0, 1.45, 15.95)" spreadMethod ="pad" x1="-819.2" y1="0" x2="819.2" y2="0" >
<stop  offset="0" style="stop-color:#585F63;stop-opacity:0.298039" />
<stop  offset="1" style="stop-color:#B7BABC;stop-opacity:0.298039" />
</linearGradient>
<path style="fill:url(#LinearGradID_104) " d="M2.1,5.05L2.1 1L1.1 1L1.1 5.05L1.1 16L1.1 21L2.1 21L2.1 16L2.1 5.05" />
</g>
</svg>
