<?xml version="1.0" encoding="utf-8"?>
<svg version="1.1" id="Layer_1"
xmlns="http://www.w3.org/2000/svg"
xmlns:xlink="http://www.w3.org/1999/xlink"
width="64px" height="22px"
xml:space="preserve">
<g id="12" transform="matrix(1, 0, 0, 1, 0, 0)">
<path style="fill:#999999;fill-opacity:1" d="M3.95,0L60.05 0L61.5 0Q64 0 64 2.5L64 3.95L64 18.05L64 19.5Q64 22 61.5 22L60.05 22L3.95 22L2.5 22Q0 22 0 19.5L0 18.05L0 3.95L0 2.5Q0 0 2.5 0L3.95 0M2.5,1Q1 1 1 2.5L1 3.95L1 18.05L1 19.5Q1 21 2.5 21L3.95 21L60.05 21L61.5 21Q63 21 63 19.5L63 18.05L63 3.95L63 2.5Q63 1 61.5 1L60.05 1L3.95 1L2.5 1" />
</g>
</svg>
