<?xml version="1.0" encoding="utf-8"?>
<svg version="1.1" id="Layer_1"
xmlns="http://www.w3.org/2000/svg"
xmlns:xlink="http://www.w3.org/1999/xlink"
width="14px" height="14px"
xml:space="preserve">
<g id="92" transform="matrix(1, 0, 0, 1, 0, 0)">
<path style="fill:#6F7777;fill-opacity:1" d="M14,12Q14 14 12 14L2 14Q0 14 0 12L0 2Q0 0 2 0L12 0Q14 0 14 2L14 12" />
<linearGradient
id="LinearGradID_111" gradientUnits="userSpaceOnUse" gradientTransform="matrix(0, -0.00732422, 0.00732422, 0, 7, 7)" spreadMethod ="pad" x1="-819.2" y1="0" x2="819.2" y2="0" >
<stop  offset="0" style="stop-color:#C4CCCC;stop-opacity:1" />
<stop  offset="1" style="stop-color:#EEEEEE;stop-opacity:1" />
</linearGradient>
<path style="fill:url(#LinearGradID_111) " d="M13,12Q13 13 12 13L2 13Q1 13 1 12L1 2Q1 1 2 1L12 1Q13 1 13 2L13 12" />
<path style="fill:#FFFFFF;fill-opacity:1" d="M13,3Q12.95 2.05 12 2.05L7.85 2.05L7.85 2L5.85 2L5.85 2.05L2 2.05Q1.05 2.05 1 3L1 2.05Q1 1.05 2 1.05L4 1.05L4 1L10 1L10 1.05L12 1.05Q13 1.05 13 2.05L13 3" />
</g>
</svg>
